<mxfile host="app.diagrams.net" modified="2023-10-05T17:35:39.354Z" agent="Mozilla/5.0 (Windows NT 10.0; Win64; x64) AppleWebKit/537.36 (KHTML, like Gecko) Chrome/117.0.0.0 Safari/537.36 Edg/117.0.2045.47" version="22.0.2" etag="eXhR7FSI0TQXUAzlGjqi" type="github">
  <diagram name="第 1 页" id="htTrpBiB_2x1rh0StI-T">
    <mxGraphModel>
      <root>
        <mxCell id="0" />
        <mxCell id="1" parent="0" />
      </root>
    </mxGraphModel>
  </diagram>
</mxfile>
